<?xml version="1.0" encoding="utf-8"?>
<!-- Generator: Adobe Illustrator 24.0.1, SVG Export Plug-In . SVG Version: 6.00 Build 0)  -->
<svg version="1.1" id="图层_1" xmlns="http://www.w3.org/2000/svg" xmlns:xlink="http://www.w3.org/1999/xlink" x="0px" y="0px"
	 viewBox="0 0 120 120" style="enable-background:new 0 0 120 120;" xml:space="preserve">
<style type="text/css">
	.st0{fill:#ABC4FF;}
</style>
<path class="st0" d="M60,0C26.86,0,0,26.86,0,60s26.86,60,60,60s60-26.86,60-60S93.14,0,60,0z M99.11,43.18L52.5,88.48
	c-1.98,1.92-5.15,1.88-7.07-0.1L18.94,61.14c-1.92-1.98-1.88-5.15,0.1-7.07c1.98-1.92,5.15-1.88,7.07,0.1l23,23.66l43.02-41.82
	c1.98-1.92,5.15-1.88,7.07,0.1C101.13,38.09,101.09,41.25,99.11,43.18z"/>
</svg>
